<svg xmlns="http://www.w3.org/2000/svg" xmlns:xlink="http://www.w3.org/1999/xlink" width="500" zoomAndPan="magnify" viewBox="0 0 375 374.999991" height="500" preserveAspectRatio="xMidYMid meet" version="1.0"><defs><clipPath id="acc92d8090"><path d="M 109.476562 240 L 111 240 L 111 241 L 109.476562 241 Z M 109.476562 240 " clip-rule="nonzero"/></clipPath><clipPath id="3fe6eaa587"><path d="M 110 240 L 111 240 L 111 241.292969 L 110 241.292969 Z M 110 240 " clip-rule="nonzero"/></clipPath><clipPath id="cd2b0d90d4"><path d="M 109.476562 115 L 111 115 L 111 116 L 109.476562 116 Z M 109.476562 115 " clip-rule="nonzero"/></clipPath><clipPath id="1b8edd672a"><path d="M 110 114.542969 L 111 114.542969 L 111 116 L 110 116 Z M 110 114.542969 " clip-rule="nonzero"/></clipPath><clipPath id="5a992da6e3"><path d="M 235 115 L 236.226562 115 L 236.226562 116 L 235 116 Z M 235 115 " clip-rule="nonzero"/></clipPath><clipPath id="31bca027d4"><path d="M 235 114.542969 L 236 114.542969 L 236 116 L 235 116 Z M 235 114.542969 " clip-rule="nonzero"/></clipPath><clipPath id="cd77a5e7e3"><path d="M 235 240 L 236.226562 240 L 236.226562 241 L 235 241 Z M 235 240 " clip-rule="nonzero"/></clipPath><clipPath id="f0709fe409"><path d="M 235 240 L 236 240 L 236 241.292969 L 235 241.292969 Z M 235 240 " clip-rule="nonzero"/></clipPath></defs><path fill="#243b67" d="M 338.679688 65.550781 C 325.09375 65.550781 314.175781 76.472656 314.175781 90.054688 C 314.175781 103.636719 325.09375 114.558594 338.679688 114.558594 C 352.261719 114.558594 363.179688 103.636719 363.179688 90.054688 C 363.179688 76.769531 352.261719 65.550781 338.679688 65.550781 Z M 338.679688 126.675781 C 318.601562 126.675781 302.355469 110.429688 302.355469 90.355469 C 302.355469 70.277344 318.601562 54.03125 338.679688 54.03125 C 358.753906 54.03125 375 70.277344 375 90.355469 C 375 110.128906 358.753906 126.675781 338.679688 126.675781 " fill-opacity="1" fill-rule="nonzero"/><path fill="#243b67" d="M 158.371094 241.167969 L 170.15625 242.066406 L 165.195312 308.882812 L 153.410156 308.015625 L 158.371094 241.167969 " fill-opacity="1" fill-rule="nonzero"/><path fill="#243b67" d="M 308.382812 98.710938 L 314.242188 108.996094 L 246.425781 147.484375 L 240.601562 137.195312 L 308.382812 98.710938 " fill-opacity="1" fill-rule="nonzero"/><path fill="#243b67" d="M 59.859375 55.398438 L 119.550781 110.863281 L 111.527344 119.484375 L 51.800781 64.054688 L 59.859375 55.398438 " fill-opacity="1" fill-rule="nonzero"/><path fill="#243b67" d="M 171.554688 95.980469 C 133.167969 95.980469 101.875 127.574219 101.875 165.925781 C 101.875 204.644531 133.167969 235.90625 171.851562 235.90625 C 210.539062 235.90625 241.832031 204.644531 241.832031 165.925781 C 241.53125 127.574219 210.238281 95.980469 171.554688 95.980469 Z M 171.554688 247.757812 C 126.675781 247.757812 90.054688 211.136719 90.054688 165.925781 C 90.054688 121.050781 126.675781 84.160156 171.851562 84.160156 C 216.730469 84.160156 253.652344 120.75 253.652344 165.925781 C 253.351562 211.136719 216.730469 247.757812 171.554688 247.757812 " fill-opacity="1" fill-rule="nonzero"/><path fill="#243b67" d="M 36.320312 11.820312 C 22.738281 11.820312 11.820312 22.738281 11.820312 36.320312 C 11.820312 49.90625 22.738281 60.824219 36.320312 60.824219 C 49.90625 60.824219 60.824219 49.90625 60.824219 36.320312 C 60.824219 22.738281 49.90625 11.820312 36.320312 11.820312 Z M 36.320312 72.644531 C 16.246094 72.644531 0 56.398438 0 36.320312 C 0 16.246094 16.246094 0 36.320312 0 C 56.398438 0 72.644531 16.246094 72.644531 36.320312 C 72.644531 56.398438 56.398438 72.644531 36.320312 72.644531 " fill-opacity="1" fill-rule="nonzero"/><path fill="#243b67" d="M 157.070312 314.175781 C 143.519531 314.175781 132.300781 325.09375 132.300781 338.679688 C 132.300781 352.261719 143.222656 363.480469 156.804688 363.480469 L 157.070312 369.40625 L 157.070312 363.480469 C 170.6875 363.480469 181.605469 352.5625 181.605469 338.976562 C 181.605469 325.394531 170.6875 314.175781 157.070312 314.175781 Z M 157.070312 375 C 136.695312 375 120.484375 358.488281 120.78125 338.378906 C 120.78125 318.601562 137.296875 302.355469 157.070312 302.355469 C 177.480469 302.355469 193.691406 318.902344 193.425781 338.976562 C 193.09375 358.753906 176.878906 375 157.070312 375 " fill-opacity="1" fill-rule="nonzero"/><path fill="#4b5fc2" d="M 196.652344 176.039062 C 193.03125 175.679688 189.789062 178.296875 189.429688 181.929688 C 189.179688 183.957031 187.195312 194.085938 172.800781 194.085938 C 158.617188 194.085938 156.976562 183.800781 156.789062 181.707031 C 156.527344 178.09375 153.410156 175.359375 149.777344 175.597656 C 146.132812 175.828125 143.371094 178.972656 143.605469 182.617188 C 144.152344 191.15625 150.964844 207.304688 172.800781 207.304688 C 194.476562 207.304688 201.753906 191.605469 202.574219 183.304688 C 202.933594 179.671875 200.285156 176.398438 196.652344 176.039062 " fill-opacity="1" fill-rule="nonzero"/><path fill="#4b5fc2" d="M 150.300781 157.132812 C 150.300781 153.484375 147.339844 150.527344 143.691406 150.527344 L 124.527344 150.527344 C 120.875 150.527344 117.917969 153.484375 117.917969 157.132812 C 117.917969 160.785156 120.875 163.742188 124.527344 163.742188 L 143.691406 163.742188 C 147.339844 163.742188 150.300781 160.785156 150.300781 157.132812 " fill-opacity="1" fill-rule="nonzero"/><path fill="#4b5fc2" d="M 221.671875 150.523438 L 202.507812 150.523438 C 198.859375 150.523438 195.898438 153.484375 195.898438 157.132812 C 195.898438 160.785156 198.859375 163.742188 202.507812 163.742188 L 221.671875 163.742188 C 225.324219 163.742188 228.28125 160.785156 228.28125 157.132812 C 228.28125 153.484375 225.324219 150.523438 221.671875 150.523438 " fill-opacity="1" fill-rule="nonzero"/><g clip-path="url(#acc92d8090)"><path stroke-linecap="butt" transform="matrix(0.00311264, 0, 0, -0.00311264, 109.477123, 241.292475)" fill="none" stroke-linejoin="miter" d="M 269.636761 360.015546 L -0.180043 360.015546 " stroke="#000000" stroke-width="5" stroke-opacity="1" stroke-miterlimit="4"/></g><g clip-path="url(#3fe6eaa587)"><path stroke-linecap="butt" transform="matrix(0.00311264, 0, 0, -0.00311264, 109.477123, 241.292475)" fill="none" stroke-linejoin="miter" d="M 359.994016 269.658291 L 359.994016 -0.158513 " stroke="#000000" stroke-width="5" stroke-opacity="1" stroke-miterlimit="4"/></g><g clip-path="url(#cd2b0d90d4)"><path stroke-linecap="butt" transform="matrix(0.00770691, 0, 0, -0.00770691, 109.477123, 241.292475)" fill="none" stroke-linejoin="miter" d="M 108.900153 16299.742911 L -0.0727154 16299.742911 " stroke="#000000" stroke-width="2.019" stroke-opacity="1" stroke-miterlimit="4"/></g><g clip-path="url(#1b8edd672a)"><path stroke-linecap="butt" transform="matrix(0.00777601, 0, 0, -0.00777601, 109.477123, 241.292475)" fill="none" stroke-linejoin="miter" d="M 144.10135 16192.068345 L 144.10135 16300.072823 " stroke="#000000" stroke-width="2.001" stroke-opacity="1" stroke-miterlimit="4"/></g><g clip-path="url(#5a992da6e3)"><path stroke-linecap="butt" transform="matrix(0.00777601, 0, 0, -0.00777601, 109.477123, 241.292475)" fill="none" stroke-linejoin="miter" d="M 16192.059727 16155.899404 L 16300.064205 16155.899404 " stroke="#000000" stroke-width="2.001" stroke-opacity="1" stroke-miterlimit="4"/></g><g clip-path="url(#31bca027d4)"><path stroke-linecap="butt" transform="matrix(0.00777601, 0, 0, -0.00777601, 109.477123, 241.292475)" fill="none" stroke-linejoin="miter" d="M 16155.890785 16192.068345 L 16155.890785 16300.072823 " stroke="#000000" stroke-width="2.001" stroke-opacity="1" stroke-miterlimit="4"/></g><g clip-path="url(#cd77a5e7e3)"><path stroke-linecap="butt" transform="matrix(0.00777601, 0, 0, -0.00777601, 109.477123, 241.292475)" fill="none" stroke-linejoin="miter" d="M 16192.059727 144.109968 L 16300.064205 144.109968 " stroke="#000000" stroke-width="2.001" stroke-opacity="1" stroke-miterlimit="4"/></g><g clip-path="url(#f0709fe409)"><path stroke-linecap="butt" transform="matrix(0.00770691, 0, 0, -0.00770691, 109.477123, 241.292475)" fill="none" stroke-linejoin="miter" d="M 16300.241066 108.908849 L 16300.241066 -0.0640198 " stroke="#000000" stroke-width="2.019" stroke-opacity="1" stroke-miterlimit="4"/></g></svg>